<?xml version="1.0" encoding="utf-8"?>
<svg id="Layer_1" data-name="Layer 1" viewBox="0 0 110.03 122.88" xmlns="http://www.w3.org/2000/svg">
  <defs>
    <style>.cls-1{fill-rule:evenodd;}</style>
  </defs>
  <title>beer-mug</title>
  <path style="fill: rgb(255, 215, 64); stroke: rgb(0, 0, 0);" d="M 12.78 41.228 C 11.372 46.862 11.446 54.147 12.402 59.878 C 12.718 61.779 11.847 63.91 12.307 65.747 C 12.582 66.849 12.402 68.192 12.402 69.345 C 12.402 71.993 12.842 75.409 12.023 77.865 C 11.602 79.129 12.212 80.893 12.023 82.22 C 11.685 84.585 11.914 87.152 12.307 89.509 C 12.687 91.792 12.315 94.179 12.875 96.42 C 14.008 100.951 11.173 106.083 12.686 110.62 C 12.906 111.282 12.569 112.185 12.875 112.798 C 13.587 114.221 12.379 117.224 13.538 118.383 C 14.146 118.992 14.627 120.166 15.526 120.466 C 18.316 121.396 22.494 120.182 25.655 120.182 C 31.054 120.182 36.155 120.372 41.465 119.709 C 45.507 119.203 49.887 120.123 53.961 119.614 C 56.556 119.29 60.495 118.819 63.049 119.33 C 66.168 119.954 70.524 120.468 73.652 119.425 C 74.646 119.093 75.972 119.756 76.966 119.425 C 78.672 118.856 80.077 118.721 81.51 118.005 C 82.413 117.553 82.289 116.045 82.551 115.259 C 83.331 112.919 82.267 109.266 82.267 106.739 C 82.267 102.974 83.705 98.953 82.74 95.095 C 81.568 90.407 81.794 85.136 81.794 80.232 C 81.794 77.687 81.431 75.005 81.794 72.469 C 82.659 66.411 80.788 59.832 82.267 53.914 C 82.598 52.59 81.931 50.945 82.362 49.654 C 83.485 46.285 83.588 41.414 81.51 39.335 C 81.086 38.911 79.645 39.364 79.238 38.956 C 78.111 37.829 74.123 38.058 72.516 38.862 C 71.928 39.156 71.029 38.74 70.623 39.146 C 70.076 39.692 70.471 40.774 70.15 41.418 C 69.166 43.385 70.256 46.044 68.445 47.855 C 66.765 49.535 64.296 51.258 62.008 52.02 C 61.03 52.346 59.786 52.232 58.884 52.683 C 58.101 53.075 55.856 52.258 55.192 51.926 C 52.878 50.769 49.803 49.29 48.47 46.624 C 47.338 44.36 47.301 41.953 45.63 40.282 C 45.241 39.892 43.921 40.184 43.358 39.903 C 41.361 38.904 38.45 40.065 36.258 39.335 C 34.377 38.708 32.025 39.649 30.01 39.146 C 26.595 38.292 21.886 38.786 18.555 39.619 C 17.918 39.778 14.94 39.258 14.484 39.714 C 14.153 40.045 12.45 41.134 12.118 41.134"/>
  <path style="fill: white; stroke: rgb(0, 0, 0);" d="M 12.023 38.42 C 10.101 38.42 8.609 34.248 7.289 32.929 C 5.93 31.569 4.979 29.406 4.355 27.533 C 3.864 26.059 3.153 24.685 2.651 23.178 C 1.491 19.7 3.417 14.649 5.68 12.386 C 6.776 11.29 8.843 11.306 9.846 10.303 C 10.496 9.653 12.192 9.85 12.875 9.167 C 13.551 8.491 15.031 8.599 16.094 8.599 C 17.823 8.599 20.214 8.198 21.774 8.978 C 22.668 9.425 24.364 9.675 25.182 10.492 C 25.357 10.667 27.225 12.426 27.549 12.102 C 28.035 11.615 28.488 10.223 28.874 9.451 C 29.17 8.859 30.06 8.549 30.483 8.126 C 32.254 6.355 33.508 4.626 35.595 3.582 C 37.278 2.741 39.459 3.184 41.276 2.73 C 43.51 2.171 47.633 2.933 49.038 4.339 C 49.611 4.912 50.454 5.754 51.026 6.327 C 51.16 6.461 51.488 7.38 51.689 7.179 C 54.531 4.337 57.924 2.824 62.387 2.824 C 63.921 2.824 66.262 2.913 67.215 3.866 C 67.692 4.343 68.989 4.314 69.487 4.812 C 70.151 5.477 71.361 5.816 71.759 6.611 C 72.355 7.804 73.569 9.368 74.504 10.303 C 75.325 11.124 75.28 13.152 76.398 13.711 C 77.452 14.239 78.684 13.103 79.9 13.711 C 83.023 15.273 86.217 15.389 88.705 17.877 C 89.888 19.06 90.277 20.264 90.977 21.663 C 91.271 22.253 91.335 25.018 90.977 25.734 C 90.52 26.648 90.866 27.849 90.409 28.764 C 88.738 32.105 87.534 34.099 84.918 36.716 C 83.896 37.737 82.202 37.553 81.036 38.136 C 79.88 38.714 78.182 38.361 76.871 38.798 C 76.372 38.965 75.4 38.565 75.072 38.893 C 74.635 39.33 72.798 38.611 72.327 39.082 C 71.739 39.67 71.165 40.434 70.623 40.976 C 70.332 41.267 70.587 42.598 70.434 43.059 C 70.001 44.355 69.88 45.585 69.298 46.751 C 67.971 49.404 65.073 51.23 62.86 52.336 C 60.988 53.272 58.282 51.893 56.896 51.2 C 56.173 50.839 54.174 51.034 53.582 50.443 C 52.333 49.193 50.656 48.369 49.512 47.224 C 47.133 44.845 47.408 40.729 44.305 39.177 C 41.807 37.928 36.983 39.177 34.175 39.177 C 26.618 39.177 18.323 38.704 11.076 38.704"/>
  <path class="cls-1" d="M 28.795 4.355 C 30.969 2.492 33.569 1.194 36.365 0.575 C 39.045 -0.028 41.821 -0.062 44.515 0.475 C 46.715 0.91 48.81 1.766 50.685 2.995 C 52.359 1.85 54.22 1.008 56.185 0.505 C 58.653 -0.134 61.225 -0.264 63.745 0.125 C 66.27 0.522 68.698 1.387 70.905 2.675 C 74.191 4.597 76.907 7.358 78.775 10.675 C 82.012 10.645 85.172 11.67 87.775 13.595 C 89.529 14.871 91.006 16.491 92.115 18.355 C 93.286 20.319 93.991 22.526 94.175 24.805 C 94.585 29.805 92.525 35.255 86.495 39.645 L 86.495 50.345 L 91.495 49.905 C 101.615 49.015 109.905 58.195 109.905 68.315 L 109.905 89.955 C 109.905 99.885 101.745 108.865 91.905 107.955 L 86.545 107.495 L 86.545 112.905 C 86.536 115.533 85.486 118.05 83.625 119.905 C 81.771 121.767 79.253 122.817 76.625 122.825 L 18.145 122.825 C 12.681 122.787 8.259 118.369 8.215 112.905 C 8.215 105.215 8.315 50.905 8.345 39.215 C 1.395 33.475 -0.775 26.905 0.085 20.985 C 0.601 17.588 2.127 14.424 4.465 11.905 C 6.741 9.438 9.634 7.622 12.845 6.645 C 17.211 5.299 21.914 5.558 26.105 7.375 C 26.869 6.264 27.773 5.255 28.795 4.375 L 28.795 4.355 Z M 86.525 62.085 L 86.525 96.205 L 93.525 96.205 C 95.832 96.189 97.699 94.322 97.715 92.015 L 97.715 66.685 C 97.704 64.145 95.645 62.09 93.105 62.085 L 86.525 62.085 Z M 79.395 41.825 L 77.715 41.925 C 76.335 41.925 74.925 41.925 73.485 41.925 L 73.485 42.285 C 73.616 48.697 69.297 54.348 63.075 55.905 C 60.507 56.57 57.813 56.57 55.245 55.905 C 51.849 55.045 48.884 52.975 46.905 50.085 C 45.815 48.347 45.04 46.431 44.615 44.425 C 44.255 43.165 43.905 41.905 40.845 41.905 L 15.335 41.905 L 15.335 112.905 C 15.346 114.452 16.598 115.704 18.145 115.715 L 76.605 115.715 C 77.355 115.722 78.076 115.426 78.605 114.895 C 79.136 114.366 79.432 113.645 79.425 112.895 L 79.425 41.895 L 79.395 41.825 Z M 13.965 35.775 C -5.905 21.905 16.035 2.125 29.625 17.385 C 28.535 4.675 46.595 2.665 50.565 11.905 C 56.415 1.835 71.905 5.185 75.155 17.785 C 83.965 12.835 95.555 26.785 81.835 35.435 C 78.96 35.833 76.055 35.977 73.155 35.865 C 68.615 35.785 67.475 38.105 67.425 42.245 C 67.315 51.355 55.905 52.625 51.905 46.675 C 49.235 42.675 51.555 35.775 40.815 35.775 L 13.965 35.775 Z"/>
</svg>